<mxfile host="app.diagrams.net" modified="2024-06-09T08:59:49.220Z" agent="Mozilla/5.0 (Windows NT 10.0; Win64; x64) AppleWebKit/537.36 (KHTML, like Gecko) Chrome/125.0.0.0 Safari/537.36 Edg/125.0.0.0" etag="k73ph5hBPTS7cXzw_Qec" version="24.5.2" type="google">
  <diagram name="Page-1" id="r-0gZtOBByU4SeaCgne1">
    <mxGraphModel grid="1" page="1" gridSize="10" guides="1" tooltips="1" connect="1" arrows="1" fold="1" pageScale="1" pageWidth="850" pageHeight="1100" math="0" shadow="0">
      <root>
        <mxCell id="0" />
        <mxCell id="1" parent="0" />
        <mxCell id="whmlWwJNdpXnaMxeaH8H-2" style="edgeStyle=orthogonalEdgeStyle;rounded=0;orthogonalLoop=1;jettySize=auto;html=1;exitX=0.5;exitY=1;exitDx=0;exitDy=0;entryX=0.5;entryY=0;entryDx=0;entryDy=0;" edge="1" parent="1" source="whmlWwJNdpXnaMxeaH8H-1" target="whmlWwJNdpXnaMxeaH8H-3">
          <mxGeometry relative="1" as="geometry">
            <mxPoint x="410" y="210" as="targetPoint" />
          </mxGeometry>
        </mxCell>
        <mxCell id="whmlWwJNdpXnaMxeaH8H-1" value="START" style="ellipse;whiteSpace=wrap;html=1;" vertex="1" parent="1">
          <mxGeometry x="350" y="50" width="120" height="80" as="geometry" />
        </mxCell>
        <mxCell id="XjWXfasinV1tmDKt9axp-2" value="" style="edgeStyle=orthogonalEdgeStyle;rounded=0;orthogonalLoop=1;jettySize=auto;html=1;" edge="1" parent="1" source="whmlWwJNdpXnaMxeaH8H-3" target="XjWXfasinV1tmDKt9axp-1">
          <mxGeometry relative="1" as="geometry" />
        </mxCell>
        <mxCell id="whmlWwJNdpXnaMxeaH8H-3" value="&lt;div&gt;INPUT&lt;/div&gt;&lt;div&gt;harga&lt;/div&gt;&lt;div&gt;voucher&lt;/div&gt;&lt;div&gt;jarak&lt;/div&gt;&lt;div&gt;pajak&lt;/div&gt;" style="shape=parallelogram;perimeter=parallelogramPerimeter;whiteSpace=wrap;html=1;fixedSize=1;" vertex="1" parent="1">
          <mxGeometry x="315" y="180" width="190" height="100" as="geometry" />
        </mxCell>
        <mxCell id="whmlWwJNdpXnaMxeaH8H-4" value="FazzFood(75000,&#39;FAZZFOOD50&#39;,5,True)" style="text;html=1;align=center;verticalAlign=middle;resizable=0;points=[];autosize=1;strokeColor=none;fillColor=none;" vertex="1" parent="1">
          <mxGeometry x="505" y="215" width="240" height="30" as="geometry" />
        </mxCell>
        <mxCell id="XjWXfasinV1tmDKt9axp-4" value="FALSE" style="edgeStyle=orthogonalEdgeStyle;rounded=0;orthogonalLoop=1;jettySize=auto;html=1;" edge="1" parent="1" source="XjWXfasinV1tmDKt9axp-1" target="XjWXfasinV1tmDKt9axp-3">
          <mxGeometry relative="1" as="geometry" />
        </mxCell>
        <mxCell id="XjWXfasinV1tmDKt9axp-8" value="TRUE" style="edgeStyle=orthogonalEdgeStyle;rounded=0;orthogonalLoop=1;jettySize=auto;html=1;" edge="1" parent="1" source="XjWXfasinV1tmDKt9axp-1" target="XjWXfasinV1tmDKt9axp-7">
          <mxGeometry relative="1" as="geometry" />
        </mxCell>
        <mxCell id="XjWXfasinV1tmDKt9axp-1" value="pajak" style="rhombus;whiteSpace=wrap;html=1;" vertex="1" parent="1">
          <mxGeometry x="330" y="320" width="160" height="80" as="geometry" />
        </mxCell>
        <mxCell id="XjWXfasinV1tmDKt9axp-6" value="" style="edgeStyle=orthogonalEdgeStyle;rounded=0;orthogonalLoop=1;jettySize=auto;html=1;" edge="1" parent="1" source="XjWXfasinV1tmDKt9axp-3" target="XjWXfasinV1tmDKt9axp-5">
          <mxGeometry relative="1" as="geometry" />
        </mxCell>
        <mxCell id="XjWXfasinV1tmDKt9axp-3" value="biayaPajak = 0" style="whiteSpace=wrap;html=1;" vertex="1" parent="1">
          <mxGeometry x="350" y="490" width="120" height="60" as="geometry" />
        </mxCell>
        <mxCell id="XjWXfasinV1tmDKt9axp-12" value="TRUE" style="edgeStyle=orthogonalEdgeStyle;rounded=0;orthogonalLoop=1;jettySize=auto;html=1;exitX=0.5;exitY=1;exitDx=0;exitDy=0;entryX=0.5;entryY=0;entryDx=0;entryDy=0;" edge="1" parent="1" source="XjWXfasinV1tmDKt9axp-5" target="XjWXfasinV1tmDKt9axp-14">
          <mxGeometry relative="1" as="geometry">
            <mxPoint x="410" y="760" as="targetPoint" />
          </mxGeometry>
        </mxCell>
        <mxCell id="XjWXfasinV1tmDKt9axp-16" value="" style="edgeStyle=orthogonalEdgeStyle;rounded=0;orthogonalLoop=1;jettySize=auto;html=1;" edge="1" parent="1" source="XjWXfasinV1tmDKt9axp-5" target="XjWXfasinV1tmDKt9axp-15">
          <mxGeometry relative="1" as="geometry" />
        </mxCell>
        <mxCell id="XjWXfasinV1tmDKt9axp-20" value="FALSE" style="edgeLabel;html=1;align=center;verticalAlign=middle;resizable=0;points=[];" connectable="0" vertex="1" parent="XjWXfasinV1tmDKt9axp-16">
          <mxGeometry x="0.1328" y="-1" relative="1" as="geometry">
            <mxPoint as="offset" />
          </mxGeometry>
        </mxCell>
        <mxCell id="XjWXfasinV1tmDKt9axp-5" value="jarak &amp;gt; 2" style="rhombus;whiteSpace=wrap;html=1;" vertex="1" parent="1">
          <mxGeometry x="350" y="610" width="120" height="80" as="geometry" />
        </mxCell>
        <mxCell id="XjWXfasinV1tmDKt9axp-9" style="edgeStyle=orthogonalEdgeStyle;rounded=0;orthogonalLoop=1;jettySize=auto;html=1;exitX=0.5;exitY=1;exitDx=0;exitDy=0;entryX=1;entryY=0.5;entryDx=0;entryDy=0;" edge="1" parent="1" source="XjWXfasinV1tmDKt9axp-7" target="XjWXfasinV1tmDKt9axp-5">
          <mxGeometry relative="1" as="geometry" />
        </mxCell>
        <mxCell id="XjWXfasinV1tmDKt9axp-7" value="biayaPajak = 5% * harga" style="whiteSpace=wrap;html=1;" vertex="1" parent="1">
          <mxGeometry x="590" y="330" width="120" height="60" as="geometry" />
        </mxCell>
        <mxCell id="XjWXfasinV1tmDKt9axp-19" style="edgeStyle=orthogonalEdgeStyle;rounded=0;orthogonalLoop=1;jettySize=auto;html=1;exitX=0;exitY=0.5;exitDx=0;exitDy=0;entryX=1;entryY=0.5;entryDx=0;entryDy=0;" edge="1" parent="1" source="XjWXfasinV1tmDKt9axp-14" target="XjWXfasinV1tmDKt9axp-17">
          <mxGeometry relative="1" as="geometry" />
        </mxCell>
        <mxCell id="XjWXfasinV1tmDKt9axp-14" value="biayaKirim = (jarak - 2)*3000 + 5000" style="rounded=0;whiteSpace=wrap;html=1;" vertex="1" parent="1">
          <mxGeometry x="350" y="770" width="120" height="60" as="geometry" />
        </mxCell>
        <mxCell id="XjWXfasinV1tmDKt9axp-18" value="" style="edgeStyle=orthogonalEdgeStyle;rounded=0;orthogonalLoop=1;jettySize=auto;html=1;" edge="1" parent="1" source="XjWXfasinV1tmDKt9axp-15" target="XjWXfasinV1tmDKt9axp-17">
          <mxGeometry relative="1" as="geometry" />
        </mxCell>
        <mxCell id="XjWXfasinV1tmDKt9axp-15" value="biayaKirim = 5000" style="whiteSpace=wrap;html=1;" vertex="1" parent="1">
          <mxGeometry x="150" y="620" width="120" height="60" as="geometry" />
        </mxCell>
        <mxCell id="XjWXfasinV1tmDKt9axp-22" value="" style="edgeStyle=orthogonalEdgeStyle;rounded=0;orthogonalLoop=1;jettySize=auto;html=1;" edge="1" parent="1" source="XjWXfasinV1tmDKt9axp-17" target="XjWXfasinV1tmDKt9axp-21">
          <mxGeometry relative="1" as="geometry" />
        </mxCell>
        <mxCell id="XjWXfasinV1tmDKt9axp-23" value="FALSE" style="edgeLabel;html=1;align=center;verticalAlign=middle;resizable=0;points=[];" connectable="0" vertex="1" parent="XjWXfasinV1tmDKt9axp-22">
          <mxGeometry x="-0.1093" relative="1" as="geometry">
            <mxPoint as="offset" />
          </mxGeometry>
        </mxCell>
        <mxCell id="XjWXfasinV1tmDKt9axp-27" value="" style="edgeStyle=orthogonalEdgeStyle;rounded=0;orthogonalLoop=1;jettySize=auto;html=1;" edge="1" parent="1" source="XjWXfasinV1tmDKt9axp-17" target="XjWXfasinV1tmDKt9axp-26">
          <mxGeometry relative="1" as="geometry" />
        </mxCell>
        <mxCell id="XjWXfasinV1tmDKt9axp-29" value="TRUE" style="edgeLabel;html=1;align=center;verticalAlign=middle;resizable=0;points=[];" connectable="0" vertex="1" parent="XjWXfasinV1tmDKt9axp-27">
          <mxGeometry x="-0.0353" relative="1" as="geometry">
            <mxPoint as="offset" />
          </mxGeometry>
        </mxCell>
        <mxCell id="XjWXfasinV1tmDKt9axp-17" value="voucher == &#39;FAZZFOOD50&#39;&lt;div&gt;OR&lt;/div&gt;&lt;div&gt;&#39;DITRAKTIR60&#39;&lt;/div&gt;" style="rhombus;whiteSpace=wrap;html=1;" vertex="1" parent="1">
          <mxGeometry x="105" y="722.5" width="210" height="155" as="geometry" />
        </mxCell>
        <mxCell id="XjWXfasinV1tmDKt9axp-25" value="" style="edgeStyle=orthogonalEdgeStyle;rounded=0;orthogonalLoop=1;jettySize=auto;html=1;" edge="1" parent="1" source="XjWXfasinV1tmDKt9axp-21" target="XjWXfasinV1tmDKt9axp-24">
          <mxGeometry relative="1" as="geometry" />
        </mxCell>
        <mxCell id="XjWXfasinV1tmDKt9axp-21" value="diskon = 0" style="whiteSpace=wrap;html=1;" vertex="1" parent="1">
          <mxGeometry x="150" y="940" width="120" height="60" as="geometry" />
        </mxCell>
        <mxCell id="XjWXfasinV1tmDKt9axp-44" style="edgeStyle=orthogonalEdgeStyle;rounded=0;orthogonalLoop=1;jettySize=auto;html=1;exitX=1;exitY=0.5;exitDx=0;exitDy=0;entryX=0;entryY=0.5;entryDx=0;entryDy=0;" edge="1" parent="1" source="XjWXfasinV1tmDKt9axp-24" target="XjWXfasinV1tmDKt9axp-43">
          <mxGeometry relative="1" as="geometry" />
        </mxCell>
        <mxCell id="XjWXfasinV1tmDKt9axp-24" value="subTotal = (harga - diskon) + pajak + biayaKirim" style="whiteSpace=wrap;html=1;" vertex="1" parent="1">
          <mxGeometry x="150" y="1050" width="120" height="60" as="geometry" />
        </mxCell>
        <mxCell id="XjWXfasinV1tmDKt9axp-31" value="" style="edgeStyle=orthogonalEdgeStyle;rounded=0;orthogonalLoop=1;jettySize=auto;html=1;" edge="1" parent="1" source="XjWXfasinV1tmDKt9axp-26" target="XjWXfasinV1tmDKt9axp-30">
          <mxGeometry relative="1" as="geometry" />
        </mxCell>
        <mxCell id="XjWXfasinV1tmDKt9axp-35" value="FALSE" style="edgeLabel;html=1;align=center;verticalAlign=middle;resizable=0;points=[];" connectable="0" vertex="1" parent="XjWXfasinV1tmDKt9axp-31">
          <mxGeometry x="-0.6" y="-3" relative="1" as="geometry">
            <mxPoint as="offset" />
          </mxGeometry>
        </mxCell>
        <mxCell id="XjWXfasinV1tmDKt9axp-49" value="" style="edgeStyle=orthogonalEdgeStyle;rounded=0;orthogonalLoop=1;jettySize=auto;html=1;" edge="1" parent="1" source="XjWXfasinV1tmDKt9axp-26" target="XjWXfasinV1tmDKt9axp-48">
          <mxGeometry relative="1" as="geometry" />
        </mxCell>
        <mxCell id="XjWXfasinV1tmDKt9axp-26" value="voucher == &#39;FAZZFOOD50&#39;" style="rhombus;whiteSpace=wrap;html=1;" vertex="1" parent="1">
          <mxGeometry x="-190" y="725" width="190" height="150" as="geometry" />
        </mxCell>
        <mxCell id="XjWXfasinV1tmDKt9axp-33" value="" style="edgeStyle=orthogonalEdgeStyle;rounded=0;orthogonalLoop=1;jettySize=auto;html=1;" edge="1" parent="1" source="XjWXfasinV1tmDKt9axp-30" target="XjWXfasinV1tmDKt9axp-32">
          <mxGeometry relative="1" as="geometry" />
        </mxCell>
        <mxCell id="XjWXfasinV1tmDKt9axp-34" value="TRUE" style="edgeLabel;html=1;align=center;verticalAlign=middle;resizable=0;points=[];" connectable="0" vertex="1" parent="XjWXfasinV1tmDKt9axp-33">
          <mxGeometry x="-0.2444" relative="1" as="geometry">
            <mxPoint as="offset" />
          </mxGeometry>
        </mxCell>
        <mxCell id="XjWXfasinV1tmDKt9axp-30" value="voucher == &#39;DITRAKTIR60&#39;&amp;nbsp;" style="rhombus;whiteSpace=wrap;html=1;" vertex="1" parent="1">
          <mxGeometry x="-182.5" y="940" width="175" height="110" as="geometry" />
        </mxCell>
        <mxCell id="XjWXfasinV1tmDKt9axp-37" value="" style="edgeStyle=orthogonalEdgeStyle;rounded=0;orthogonalLoop=1;jettySize=auto;html=1;" edge="1" parent="1" source="XjWXfasinV1tmDKt9axp-32" target="XjWXfasinV1tmDKt9axp-36">
          <mxGeometry relative="1" as="geometry" />
        </mxCell>
        <mxCell id="XjWXfasinV1tmDKt9axp-38" value="TRUE" style="edgeLabel;html=1;align=center;verticalAlign=middle;resizable=0;points=[];" connectable="0" vertex="1" parent="XjWXfasinV1tmDKt9axp-37">
          <mxGeometry x="-0.0518" y="4" relative="1" as="geometry">
            <mxPoint as="offset" />
          </mxGeometry>
        </mxCell>
        <mxCell id="XjWXfasinV1tmDKt9axp-32" value="harga &amp;gt;=&lt;div&gt;25000&lt;/div&gt;" style="rhombus;whiteSpace=wrap;html=1;" vertex="1" parent="1">
          <mxGeometry x="-167.5" y="1140" width="145" height="90" as="geometry" />
        </mxCell>
        <mxCell id="XjWXfasinV1tmDKt9axp-40" value="" style="edgeStyle=orthogonalEdgeStyle;rounded=0;orthogonalLoop=1;jettySize=auto;html=1;" edge="1" parent="1" source="XjWXfasinV1tmDKt9axp-36" target="XjWXfasinV1tmDKt9axp-39">
          <mxGeometry relative="1" as="geometry" />
        </mxCell>
        <mxCell id="XjWXfasinV1tmDKt9axp-36" value="diskon = harga * 60%" style="whiteSpace=wrap;html=1;" vertex="1" parent="1">
          <mxGeometry x="-155" y="1360" width="120" height="60" as="geometry" />
        </mxCell>
        <mxCell id="XjWXfasinV1tmDKt9axp-42" value="" style="edgeStyle=orthogonalEdgeStyle;rounded=0;orthogonalLoop=1;jettySize=auto;html=1;" edge="1" parent="1" source="XjWXfasinV1tmDKt9axp-39" target="XjWXfasinV1tmDKt9axp-41">
          <mxGeometry relative="1" as="geometry" />
        </mxCell>
        <mxCell id="XjWXfasinV1tmDKt9axp-39" value="diskon &amp;gt; 30000" style="rhombus;whiteSpace=wrap;html=1;" vertex="1" parent="1">
          <mxGeometry x="-160" y="1540" width="130" height="85" as="geometry" />
        </mxCell>
        <mxCell id="XjWXfasinV1tmDKt9axp-68" style="edgeStyle=orthogonalEdgeStyle;rounded=0;orthogonalLoop=1;jettySize=auto;html=1;entryX=0.5;entryY=1;entryDx=0;entryDy=0;" edge="1" parent="1" target="XjWXfasinV1tmDKt9axp-24">
          <mxGeometry relative="1" as="geometry">
            <mxPoint x="290" y="1520" as="targetPoint" />
            <mxPoint x="-100" y="1830" as="sourcePoint" />
          </mxGeometry>
        </mxCell>
        <mxCell id="XjWXfasinV1tmDKt9axp-71" style="edgeStyle=orthogonalEdgeStyle;rounded=0;orthogonalLoop=1;jettySize=auto;html=1;exitX=0.5;exitY=1;exitDx=0;exitDy=0;" edge="1" parent="1" source="XjWXfasinV1tmDKt9axp-41">
          <mxGeometry relative="1" as="geometry">
            <mxPoint x="-95" y="1830" as="targetPoint" />
          </mxGeometry>
        </mxCell>
        <mxCell id="XjWXfasinV1tmDKt9axp-41" value="diskon = 30000" style="whiteSpace=wrap;html=1;" vertex="1" parent="1">
          <mxGeometry x="-155" y="1730" width="120" height="60" as="geometry" />
        </mxCell>
        <mxCell id="XjWXfasinV1tmDKt9axp-46" value="" style="edgeStyle=orthogonalEdgeStyle;rounded=0;orthogonalLoop=1;jettySize=auto;html=1;" edge="1" parent="1" source="XjWXfasinV1tmDKt9axp-43" target="XjWXfasinV1tmDKt9axp-45">
          <mxGeometry relative="1" as="geometry" />
        </mxCell>
        <mxCell id="XjWXfasinV1tmDKt9axp-43" value="OUTPUT&lt;div&gt;harga&lt;/div&gt;&lt;div&gt;diskon&lt;/div&gt;&lt;div&gt;pajak&lt;/div&gt;&lt;div&gt;biayaKirim&lt;/div&gt;&lt;div&gt;suubTotal&lt;/div&gt;" style="shape=parallelogram;perimeter=parallelogramPerimeter;whiteSpace=wrap;html=1;fixedSize=1;" vertex="1" parent="1">
          <mxGeometry x="340" y="1030" width="190" height="100" as="geometry" />
        </mxCell>
        <mxCell id="XjWXfasinV1tmDKt9axp-45" value="END" style="ellipse;whiteSpace=wrap;html=1;" vertex="1" parent="1">
          <mxGeometry x="650" y="1042.5" width="145" height="75" as="geometry" />
        </mxCell>
        <mxCell id="XjWXfasinV1tmDKt9axp-51" value="" style="edgeStyle=orthogonalEdgeStyle;rounded=0;orthogonalLoop=1;jettySize=auto;html=1;" edge="1" parent="1" source="XjWXfasinV1tmDKt9axp-48" target="XjWXfasinV1tmDKt9axp-50">
          <mxGeometry relative="1" as="geometry" />
        </mxCell>
        <mxCell id="XjWXfasinV1tmDKt9axp-52" value="TRUE" style="edgeLabel;html=1;align=center;verticalAlign=middle;resizable=0;points=[];" connectable="0" vertex="1" parent="XjWXfasinV1tmDKt9axp-51">
          <mxGeometry x="-0.1407" y="-2" relative="1" as="geometry">
            <mxPoint as="offset" />
          </mxGeometry>
        </mxCell>
        <mxCell id="XjWXfasinV1tmDKt9axp-65" value="" style="edgeStyle=orthogonalEdgeStyle;rounded=0;orthogonalLoop=1;jettySize=auto;html=1;" edge="1" parent="1" source="XjWXfasinV1tmDKt9axp-48" target="XjWXfasinV1tmDKt9axp-64">
          <mxGeometry relative="1" as="geometry" />
        </mxCell>
        <mxCell id="XjWXfasinV1tmDKt9axp-76" value="FALSE" style="edgeLabel;html=1;align=center;verticalAlign=middle;resizable=0;points=[];" connectable="0" vertex="1" parent="XjWXfasinV1tmDKt9axp-65">
          <mxGeometry x="-0.0222" y="-1" relative="1" as="geometry">
            <mxPoint as="offset" />
          </mxGeometry>
        </mxCell>
        <mxCell id="XjWXfasinV1tmDKt9axp-48" value="harga &amp;gt;= 50000" style="rhombus;whiteSpace=wrap;html=1;" vertex="1" parent="1">
          <mxGeometry x="-530" y="760" width="155" height="80" as="geometry" />
        </mxCell>
        <mxCell id="XjWXfasinV1tmDKt9axp-54" value="" style="edgeStyle=orthogonalEdgeStyle;rounded=0;orthogonalLoop=1;jettySize=auto;html=1;" edge="1" parent="1" source="XjWXfasinV1tmDKt9axp-50" target="XjWXfasinV1tmDKt9axp-53">
          <mxGeometry relative="1" as="geometry" />
        </mxCell>
        <mxCell id="XjWXfasinV1tmDKt9axp-50" value="diskon = harga * 50%" style="whiteSpace=wrap;html=1;" vertex="1" parent="1">
          <mxGeometry x="-760" y="770" width="120" height="60" as="geometry" />
        </mxCell>
        <mxCell id="XjWXfasinV1tmDKt9axp-56" value="" style="edgeStyle=orthogonalEdgeStyle;rounded=0;orthogonalLoop=1;jettySize=auto;html=1;" edge="1" parent="1" source="XjWXfasinV1tmDKt9axp-53" target="XjWXfasinV1tmDKt9axp-55">
          <mxGeometry relative="1" as="geometry" />
        </mxCell>
        <mxCell id="XjWXfasinV1tmDKt9axp-61" value="TRUE" style="edgeLabel;html=1;align=center;verticalAlign=middle;resizable=0;points=[];" connectable="0" vertex="1" parent="XjWXfasinV1tmDKt9axp-56">
          <mxGeometry x="-0.163" y="1" relative="1" as="geometry">
            <mxPoint as="offset" />
          </mxGeometry>
        </mxCell>
        <mxCell id="XjWXfasinV1tmDKt9axp-58" value="" style="edgeStyle=orthogonalEdgeStyle;rounded=0;orthogonalLoop=1;jettySize=auto;html=1;" edge="1" parent="1" source="XjWXfasinV1tmDKt9axp-53" target="XjWXfasinV1tmDKt9axp-57">
          <mxGeometry relative="1" as="geometry" />
        </mxCell>
        <mxCell id="XjWXfasinV1tmDKt9axp-59" value="FALSE" style="edgeLabel;html=1;align=center;verticalAlign=middle;resizable=0;points=[];" connectable="0" vertex="1" parent="XjWXfasinV1tmDKt9axp-58">
          <mxGeometry x="-0.2209" y="3" relative="1" as="geometry">
            <mxPoint as="offset" />
          </mxGeometry>
        </mxCell>
        <mxCell id="XjWXfasinV1tmDKt9axp-53" value="diskon &amp;gt; 50000" style="rhombus;whiteSpace=wrap;html=1;" vertex="1" parent="1">
          <mxGeometry x="-762.5" y="890" width="122.5" height="80" as="geometry" />
        </mxCell>
        <mxCell id="XjWXfasinV1tmDKt9axp-74" style="edgeStyle=orthogonalEdgeStyle;rounded=0;orthogonalLoop=1;jettySize=auto;html=1;exitX=0.5;exitY=1;exitDx=0;exitDy=0;" edge="1" parent="1" source="XjWXfasinV1tmDKt9axp-55">
          <mxGeometry relative="1" as="geometry">
            <mxPoint x="-450" y="1830" as="targetPoint" />
            <Array as="points">
              <mxPoint x="-590" y="1830" />
            </Array>
          </mxGeometry>
        </mxCell>
        <mxCell id="XjWXfasinV1tmDKt9axp-55" value="diskon = 50000" style="whiteSpace=wrap;html=1;" vertex="1" parent="1">
          <mxGeometry x="-650" y="1155" width="120" height="60" as="geometry" />
        </mxCell>
        <mxCell id="XjWXfasinV1tmDKt9axp-75" style="edgeStyle=orthogonalEdgeStyle;rounded=0;orthogonalLoop=1;jettySize=auto;html=1;exitX=0.5;exitY=1;exitDx=0;exitDy=0;" edge="1" parent="1" source="XjWXfasinV1tmDKt9axp-57">
          <mxGeometry relative="1" as="geometry">
            <mxPoint x="-560" y="1830" as="targetPoint" />
            <Array as="points">
              <mxPoint x="-822" y="1830" />
              <mxPoint x="-589" y="1830" />
            </Array>
          </mxGeometry>
        </mxCell>
        <mxCell id="XjWXfasinV1tmDKt9axp-57" value="diskon = diskon" style="whiteSpace=wrap;html=1;" vertex="1" parent="1">
          <mxGeometry x="-882.5" y="1155" width="120" height="60" as="geometry" />
        </mxCell>
        <mxCell id="XjWXfasinV1tmDKt9axp-66" style="edgeStyle=orthogonalEdgeStyle;rounded=0;orthogonalLoop=1;jettySize=auto;html=1;exitX=1;exitY=0.5;exitDx=0;exitDy=0;entryX=0;entryY=0.5;entryDx=0;entryDy=0;" edge="1" parent="1" source="XjWXfasinV1tmDKt9axp-64" target="XjWXfasinV1tmDKt9axp-32">
          <mxGeometry relative="1" as="geometry" />
        </mxCell>
        <mxCell id="XjWXfasinV1tmDKt9axp-77" value="FALSE" style="edgeLabel;html=1;align=center;verticalAlign=middle;resizable=0;points=[];" connectable="0" vertex="1" parent="XjWXfasinV1tmDKt9axp-66">
          <mxGeometry x="-0.1539" y="2" relative="1" as="geometry">
            <mxPoint as="offset" />
          </mxGeometry>
        </mxCell>
        <mxCell id="XjWXfasinV1tmDKt9axp-70" style="edgeStyle=orthogonalEdgeStyle;rounded=0;orthogonalLoop=1;jettySize=auto;html=1;exitX=0.5;exitY=1;exitDx=0;exitDy=0;" edge="1" parent="1" source="XjWXfasinV1tmDKt9axp-64">
          <mxGeometry relative="1" as="geometry">
            <mxPoint x="-60" y="1830" as="targetPoint" />
            <Array as="points">
              <mxPoint x="-452" y="1830" />
              <mxPoint x="-102" y="1830" />
            </Array>
          </mxGeometry>
        </mxCell>
        <mxCell id="XjWXfasinV1tmDKt9axp-78" value="TRUE" style="edgeLabel;html=1;align=center;verticalAlign=middle;resizable=0;points=[];" connectable="0" vertex="1" parent="XjWXfasinV1tmDKt9axp-70">
          <mxGeometry x="-0.8485" y="-1" relative="1" as="geometry">
            <mxPoint as="offset" />
          </mxGeometry>
        </mxCell>
        <mxCell id="XjWXfasinV1tmDKt9axp-64" value="diskon = 0" style="whiteSpace=wrap;html=1;" vertex="1" parent="1">
          <mxGeometry x="-512.5" y="1155" width="120" height="60" as="geometry" />
        </mxCell>
      </root>
    </mxGraphModel>
  </diagram>
</mxfile>
